<?xml version="1.0" standalone="no"?><!DOCTYPE svg PUBLIC "-//W3C//DTD SVG 1.1//EN" "http://www.w3.org/Graphics/SVG/1.1/DTD/svg11.dtd"><svg t="1534935023547" class="icon" style="" viewBox="0 0 1024 1024" version="1.1" xmlns="http://www.w3.org/2000/svg" p-id="11990" xmlns:xlink="http://www.w3.org/1999/xlink" width="200" height="200"><defs><style type="text/css"></style></defs><path d="M477.635 781.064c-0.143 0-0.215 0.067-0.285 0.067-98.198-15.029-209.432-87.705-254.048-184.545-2.858-6.203-12.437-15.412-23.732-17.936l-5.819 0.108c-9.494 1.519-18.994 8.812-20.799 18.875-0.34 1.892-0.854 3.705-1.14 5.636-0.073 0.645-0.359 1.213-0.359 1.854v1.285c0 1.283-0.143 2.494 0 3.781v150.75c0 13.985 11.488 25.475 25.479 25.475h2.639c13.988 0 25.479-11.488 25.479-25.475v-72.537c53.666 60.518 160.671 132.479 241.1 145.541 3.493 1.643 8.063 1.643 12.204 1.643 0.142 0 0.212-0.074 0.283-0.074h0.146v-0.069c15.127-0.285 26.617-11.49 26.617-26.617-0.004-15.347-12.42-27.762-27.765-27.762z m104.493-515.816c0.144 0 0.215-0.068 0.285-0.068 98.199 15.028 209.432 87.704 254.048 184.545 2.857 6.203 12.438 15.413 23.732 17.938l5.819-0.111c9.493-1.518 18.993-8.81 20.8-18.874 0.338-1.893 0.854-3.705 1.139-5.635 0.074-0.645 0.358-1.213 0.358-1.854v-1.285c0-1.283 0.144-2.494 0-3.781V285.37c0-13.987-11.487-25.476-25.479-25.476h-2.64c-13.987 0-25.479 11.488-25.479 25.476v72.537c-53.666-60.518-160.671-132.481-241.099-145.542-3.494-1.643-8.064-1.643-12.205-1.643-0.142 0-0.211 0.074-0.283 0.074h-0.146v0.07c-15.127 0.285-26.616 11.49-26.616 26.617 0.004 15.349 12.42 27.765 27.766 27.765z" p-id="11991"></path><path d="M497.5 424.5c0 43.078-34.922 78-78 78H250.495c-43.078 0-78-34.922-78-78V253.674c0-43.078 34.922-78 78-78H419.5c43.078 0 78 34.922 78 78V424.5z" p-id="11992"></path><path d="M224.5 422.5c0 15.464 12.536 28 28 28h165c15.464 0 28-12.536 28-28V256.25c0-15.464-12.536-28-28-28h-165c-15.464 0-28 12.536-28 28V422.5z" p-id="11993"></path><path d="M888.374 808.791c0 43.078-34.922 78-78 78H641.369c-43.078 0-78-34.922-78-78V637.965c0-43.078 34.922-78 78-78h169.005c43.078 0 78 34.922 78 78v170.826z" p-id="11994"></path><path d="M614.5 807.749c0 15.463 12.537 28 28 28h165c15.465 0 28-12.537 28-28v-166.25c0-15.465-12.535-28-28-28h-165c-15.463 0-28 12.535-28 28v166.25z" p-id="11995"></path></svg>