<?xml version="1.0" standalone="no"?><!DOCTYPE svg PUBLIC "-//W3C//DTD SVG 1.1//EN" "http://www.w3.org/Graphics/SVG/1.1/DTD/svg11.dtd"><svg t="1534933330390" class="icon" style="" viewBox="0 0 1024 1024" version="1.1" xmlns="http://www.w3.org/2000/svg" p-id="10847" xmlns:xlink="http://www.w3.org/1999/xlink" width="200" height="200"><defs><style type="text/css"></style></defs><path d="M0 1024V1.264198h506.94321V1024H0zM189.62963 125.155556c-39.190123 0-78.380247 0-116.306173 1.264197-5.05679 0-13.906173 10.11358-13.906173 16.434568-1.264198 36.661728 0 73.323457 0 111.249383H189.62963V125.155556zM59.417284 510.735802H189.62963V383.051852H73.323457c-5.05679 0-12.641975 8.849383-12.641976 13.906173-1.264198 39.190123-1.264198 77.116049-1.264197 113.777777zM189.62963 659.911111c0-7.585185-12.641975-18.962963-20.227161-18.962963-30.340741-2.528395-59.417284-1.264198-89.758025 0-7.585185 0-18.962963 8.849383-18.962963 13.906173-1.264198 37.925926-1.264198 75.851852-1.264197 113.777778h131.476543c0-37.925926 1.264198-73.323457-1.264197-108.720988z m257.896296-514.528395c0-7.585185-11.377778-18.962963-17.698766-18.962963-36.661728-1.264198-72.059259-1.264198-109.985185-1.264197v131.476543c37.925926 0 75.851852 1.264198 112.513581-1.264198 6.320988 0 15.17037-11.377778 15.17037-17.698765 2.528395-30.340741 2.528395-61.945679 0-92.28642z m1.264197 237.669136h-113.777777c-5.05679 0-15.17037 7.585185-15.170371 11.377778-1.264198 39.190123-1.264198 78.380247-1.264197 118.834568 39.190123 0 73.323457 1.264198 107.45679-1.264198 7.585185 0 20.22716-11.377778 21.491358-18.962963 2.528395-34.133333 1.264198-69.530864 1.264197-109.985185z m-1.264197 276.859259c0-6.320988-11.377778-17.698765-18.962963-18.962963-35.397531-1.264198-70.795062-1.264198-108.720988-1.264197v127.68395h128.948148c0-37.925926 1.264198-73.323457-1.264197-107.45679zM901.37284 1024V771.160494H702.893827v252.839506H581.530864V453.846914h442.469136V1024h-122.62716zM579.002469 380.523457v-55.624692h443.733333v55.624692H579.002469z m0 0" p-id="10848"></path></svg>