<?xml version="1.0" encoding="utf-8"?>
<!-- Generator: Adobe Illustrator 19.0.0, SVG Export Plug-In . SVG Version: 6.00 Build 0)  -->
<svg version="1.1" id="图层_1" xmlns="http://www.w3.org/2000/svg" xmlns:xlink="http://www.w3.org/1999/xlink" x="0px" y="0px"
	 viewBox="206 255 1023.8 284" style="enable-background:new 206 255 1023.8 284;" xml:space="preserve">
<style type="text/css">
	.st0{fill:#FFFFFF;}
</style>
<title>资源 1</title>
<path id="XMLID_99_" class="st0" d="M314.2,343.5c15.1-26.2,48-35.7,74.6-22l28.3-48.9c-67.1-37-151.8-13.7-190.3,53
	S210.4,477.2,276,516.8l56.4-97.7C307.3,402.9,299.1,369.6,314.2,343.5z"/>
<path id="XMLID_98_" class="st0" d="M421.9,275.4l-56.4,97.7c25.1,16.2,33.3,49.5,18.2,75.6c-15.1,26.2-48,35.7-74.6,22l-28.3,48.9
	c67.1,37,151.8,13.6,190.3-53S487.5,315,421.9,275.4z"/>
<path id="XMLID_91_" class="st0" d="M1163.1,398.4c-11.9-12.2-19.9-27.1-26.5-42.5c-0.4,0-2.3,0-2.3,0l-0.2-14.3h33.3v-20.2H1133
	l-0.2-16h34.8V284h16v21.3h39l0,16.1h-39v20.2h33.5c0,0,0,10.3,0,14.3c0,0.5-0.1,0.6-0.3,1.3c-5.5,12.9-12.6,24.9-22.1,35.3
	c-2,2.2-4.2,4.3-6.4,6.6c11.4,7.5,24,12,37.3,15.3c-2.6,5.1-5.2,10.1-7.9,15.2c-14.7-5.6-29-11.9-42.4-20.2
	c-14.5,9-29.9,15.9-46.2,21.5c-3.2-4.5-6.1-9.1-9.2-14C1135.2,412.5,1149.8,407.2,1163.1,398.4z M1153.1,355.9
	c5.8,12.6,13,23.8,22.9,33.3c10.5-9.3,18.2-20.3,23.4-33.3C1183.9,355.9,1168.7,355.9,1153.1,355.9z"/>
<path id="XMLID_90_" class="st0" d="M771.8,430.9c-3.9-4.5-7.7-8.9-11.6-13.4c13-9.7,22.8-21.7,28.3-37c2.3-6.3,3.5-14.4,3.8-18.8
	c-2.5,0-5.1,0-7.6,0c-2.6,0-5.2,0-7.7,0c-2.5,0-5,0-7.5,0c-2.6,0-5.1,0-7.8,0c0-5,0-9.7,0-14.7c10.3,0,31.4,0,31.4,0
	s0.9-11.8,1.1-29.7c-3.7,0-7.5,0-11.2,0c-2.7,7.6-6.5,14.5-10.2,21.8c-4.1-3.1-8.1-6-12.2-9.1c7.8-14.8,13.3-30.5,17.8-46.7
	c5.1,0.8,10,1.6,15.1,2.4c-1.5,6.2-3.4,12-5.3,17c14,0,27.7,0,41.6,0c0,5,0,9.7,0,14.6c-3.3,0.1-6.6,0-9.8,0c-3.3,0-6.6,0-10,0
	c-0.5,9.9-0.7,19-1.1,29.7c8,0,15.6,0,23.6,0c0,5,0,9.7,0,14.7c-8,0-24.2,0-24.2,0s-0.6,7.3-1.6,12.5c2.6,2.6,8.4,8.4,13.2,13.9
	c3.9,4.5,10.5,12.4,14.3,16.9c0.5,0.6,0.9,1.2,1.5,2c-3.8,3.6-7.6,7.2-11.5,10.9c-3.4-4.9-6.6-9.7-9.9-14.4
	c-3.4-4.7-7.1-9.2-11.1-13.6C796.1,406.3,785,419.2,771.8,430.9z"/>
<path id="XMLID_89_" class="st0" d="M943,328.3v-21.5c0,0-3.9,0.4-8.2,1.1c-1.1,0.2-9.1,1.3-10.2,1.4c-0.9-5.2-1.9-10.2-2.8-15.4
	c9.2-0.6,18.4-1.1,27.5-1.9c9.2-0.8,19.7-1.9,27.6-2.9c0.8,4.4,1.5,8.4,2.3,13.1c-9.8,1.5-21.5,3.1-21.5,3.1v22.9h20.1v14.7h-20.1
	c0,0,0,0.3,0,0.5c4.2,3.2,9,6.2,13.1,9.5c4.1,3.3,8.1,6.7,12.2,10.2c-3.5,3.8-6.9,7.3-10.4,11c-11.8-11.6-14.9-13.9-14.9-13.9v69.8
	h-14.8l0.2-55.1c0,0-0.5,1.1-0.8,2c-3,6.9-9.5,17.9-14.3,24c-3.3-3.8-6.4-7.4-9.5-11c10.1-14.5,16.7-30.5,22.7-47.1
	c-7.1,0-20.9,0-20.9,0l-0.1-14.7H943z"/>
<polygon id="XMLID_88_" class="st0" points="1046.5,430.1 1030.6,430.1 1030.6,382.8 977.1,388.6 977.1,372.2 1030.5,367.2 
	1030.5,284 1046.4,284 1046.4,365.7 1067.3,363.6 1067.3,378.5 1046.5,381.3 "/>
<path id="XMLID_87_" class="st0" d="M1096.3,311.4v-27.2l14.7-0.2v27.4h14.7v14h-14.7c0,0,0,18.8,0,28.3c5.4-1.1,10.7-2.1,16-3.1
	c0,4.6,0,9.1,0,13.8c-5.3,1.3-16,4-16,4s0,30,0,44.1c0,2.1-0.2,3.7-0.6,5.5c-1.3,5.8-5.1,9.1-10.7,10.4c-1.8,0.4-3.7,0.6-5.5,0.7
	c-3.7,0.3-7.4,0.4-11.1,0.6c-0.6,0-1.2,0-1.9,0c-1.2-5.2-2.4-10.2-3.7-15.4c0.6,0,7.3-0.1,10.1-0.1c0.8,0,1.6,0,2.3-0.1
	c3.9-0.4,6-2.7,6.2-6.8c0-11.3,0-30.7,0-34.9c-0.8,0.2-1.4,0.3-2.1,0.5c-5,1.3-16.6,3.9-16.6,3.9v-16.7l18.7-3.8v-31h-18.6v-14
	H1096.3z"/>
<path id="XMLID_86_" class="st0" d="M1014.8,330.3c-8.3-7.6-16.9-15-26.1-21.8c3.3-3.7,6.5-7.3,9.7-11c9.5,7,18.7,14.2,27.4,21.8
	C1022.1,323,1018.5,326.6,1014.8,330.3z"/>
<path id="XMLID_85_" class="st0" d="M982.1,342.4c3.1-3.5,6.3-7.1,9.5-10.8c0.6,0.4,1.2,0.8,1.6,1.2c6.8,5.4,13.6,10.8,20.3,16.2
	c1.4,1.1,2.8,2.2,4.4,3.5c-3.4,3.8-6.8,7.6-10.1,11.4C999.3,356.7,990.8,349.6,982.1,342.4z"/>
<g id="XMLID_39_">
	<path id="XMLID_41_" class="st0" d="M894.9,297.8l-7,20.7v77.8c0,7.8-6.3,14.1-14.1,14.1h-16.9l-4.9,14.4h29.2
		c12.4,0,22.6-10.2,22.6-22.6V297.8H894.9z"/>
	<path id="XMLID_40_" class="st0" d="M855.6,326.2c0-7.8,6.3-14.1,14.1-14.1H887l4.8-14.3h-29.3c-12.4,0-22.6,10.2-22.6,22.6v104.4
		h9l6.6-19.5V326.2z"/>
</g>
<g id="XMLID_140_">
	<path id="XMLID_5_" class="st0" d="M629.1,330.9v64.8c2.9-2.9,5.8-6.1,9-9.5l4.7,17.8c-8.9,9-18.2,17.3-27.9,24.4l-6.5-15.2
		c2.7-2.4,4.2-5.3,4.2-8.7v-57.3h-21.2v-16.1H629.1z M640.4,307.8l-11.5,11.6c-6.1-7.4-15-15.2-26.3-23.6l11.8-11.5
		C624.6,292.1,633.3,300.1,640.4,307.8z M731.5,430.9h-15.3v-8.4h-36.3v9h-15.5v-44.7c-4.4,3.6-9,6.6-13.9,9.5l-7.8-14.1
		c13.2-7.9,23.4-18.2,30.5-31.2H642v-15.5h38c1.6-4.7,2.9-9.4,3.9-14.2l16.1,1.9c-1,4.2-1.9,8.4-3.2,12.3h43.9v15.5h-49.7
		c-2.9,6.5-6.5,12.6-10.3,18.1h50.9V430.9z M663.2,297v-14.1h16V297h25.2v-14.1h16.1V297h18.4v15.2h-18.4V327h-16.1v-14.9h-25.2V327
		h-16v-14.9h-19.5V297H663.2z M716.1,407.8V384h-36.3v23.7H716.1z"/>
</g>
<g id="XMLID_43_">
	<path id="XMLID_27_" class="st0" d="M649.1,465.7l-21.2,20.6l24.3,27.5h-10.6l-19-22.3l-5.9,5.7v16.6h-7.9v-48.1h7.9v22.7
		l22.4-22.7H649.1z"/>
	<path id="XMLID_29_" class="st0" d="M681,465.7l23.8,34.7h0.3v-34.7h7.9v48.1h-7.7l-24-35.2H681v35.2h-7.9v-48.1H681z"/>
	<path id="XMLID_31_" class="st0" d="M777.3,471.9c4,4.5,6.1,10.5,6.1,17.9c0,7.4-2,13.3-6.1,17.9c-4.2,4.7-10,7.1-17.4,7.1
		c-7.4,0-13.2-2.4-17.4-7.1c-4-4.6-6-10.5-6-17.8c0-7.3,2-13.3,6-17.9c4.2-4.8,10-7.2,17.4-7.2C767.3,464.7,773.1,467.1,777.3,471.9
		z M748.3,476.7c-2.6,3.2-3.9,7.5-3.9,13.1c0,5.5,1.3,9.8,3.9,13c2.7,3.3,6.6,5,11.6,5c5,0,8.8-1.6,11.5-4.8c2.6-3.2,4-7.5,4-13.2
		c0-5.7-1.3-10.1-4-13.3c-2.7-3.2-6.5-4.8-11.5-4.8C754.9,471.7,751.1,473.4,748.3,476.7z"/>
	<path id="XMLID_34_" class="st0" d="M842.4,468.8c3.4,2.7,5.6,6.7,6.5,12.1H841c-0.7-3.1-2.2-5.4-4.3-6.9c-2.2-1.5-5.2-2.3-8.8-2.3
		c-4.5,0-8.1,1.5-10.7,4.6c-2.9,3.2-4.3,7.7-4.3,13.7c0,5.7,1.3,10,3.8,13.1c2.8,3.2,7.1,4.8,12.9,4.8c2.3,0,4.4-0.3,6.5-0.8
		c1.9-0.5,3.6-1.3,5.2-2.2v-9.9h-12.7v-6.7h20.6v20.3c-2.6,2-5.5,3.5-8.8,4.6c-3.5,1.1-7.3,1.6-11.7,1.6c-7.7,0-13.6-2.4-17.9-7.3
		c-4-4.5-5.9-10.4-5.9-17.5c0-7.2,2-13.1,5.9-17.8c4.2-5,9.8-7.4,17-7.4C834,464.7,838.9,466.1,842.4,468.8z"/>
	<path id="XMLID_36_" class="st0" d="M908.7,465.7v6.7h-26.8v13.3h25.2v6.7h-25.2V507h28v6.7H874v-48.1H908.7z"/>
	<path id="XMLID_38_" class="st0" d="M941.3,465.7l23.8,34.7h0.3v-34.7h7.9v48.1h-7.7l-24-35.2h-0.3v35.2h-7.9v-48.1H941.3z"/>
	<path id="XMLID_94_" class="st0" d="M1007.2,505.1c1,1,1.5,2.3,1.5,3.8c0,1.5-0.5,2.7-1.5,3.8c-1.1,0.9-2.3,1.5-3.8,1.5
		c-1.5,0-2.8-0.5-3.7-1.5c-1.1-1.1-1.5-2.3-1.5-3.8c0-1.5,0.5-2.8,1.5-3.8c0.9-1.1,2.2-1.5,3.7-1.5
		C1004.9,503.6,1006.1,504.1,1007.2,505.1z"/>
	<path id="XMLID_96_" class="st0" d="M1068.5,469.2c3.5,2.8,5.6,6.7,6.3,11.6h-7.7c-0.8-3.2-2.3-5.5-4.5-6.9
		c-2.2-1.5-4.9-2.2-8.3-2.2c-5.1,0-8.8,1.7-11.4,5.2c-2.4,3.1-3.5,7.4-3.5,12.9c0,5.7,1.1,10,3.4,13.1c2.5,3.2,6.4,4.9,11.7,4.9
		c3.4,0,6.3-0.9,8.4-2.5c2.3-1.8,3.9-4.6,4.8-8.2h7.7c-1.1,5.7-3.6,10-7.5,13.2c-3.7,3-8.2,4.4-13.3,4.4c-8,0-14-2.6-17.9-7.5
		c-3.4-4.3-5.1-10.1-5.1-17.4c0-7.1,1.8-13,5.3-17.4c4-5.1,9.9-7.6,17.6-7.6C1060.2,464.7,1064.9,466.2,1068.5,469.2z"/>
	<path id="XMLID_145_" class="st0" d="M1137.8,471.9c4,4.5,6.1,10.5,6.1,17.9c0,7.4-2,13.3-6.1,17.9c-4.2,4.7-10,7.1-17.4,7.1
		c-7.4,0-13.2-2.4-17.4-7.1c-4-4.6-6-10.5-6-17.8c0-7.3,2-13.3,6-17.9c4.2-4.8,10-7.2,17.4-7.2
		C1127.8,464.7,1133.6,467.1,1137.8,471.9z M1108.9,476.7c-2.6,3.2-3.9,7.5-3.9,13.1c0,5.5,1.3,9.8,3.9,13c2.7,3.3,6.6,5,11.6,5
		c5,0,8.8-1.6,11.5-4.8c2.6-3.2,4-7.5,4-13.2c0-5.7-1.3-10.1-4-13.3c-2.7-3.2-6.5-4.8-11.5-4.8
		C1115.5,471.7,1111.6,473.4,1108.9,476.7z"/>
	<path id="XMLID_148_" class="st0" d="M1176.7,465.7l16.4,37.7h0.3l16.3-37.7h9.2v48.1h-7.9v-33.1h-0.3l-14.1,33.1h-6.8l-14.1-33.1
		h-0.3v33.1h-7.9v-48.1H1176.7z"/>
</g>
</svg>
