<?xml version="1.0" standalone="no"?><!DOCTYPE svg PUBLIC "-//W3C//DTD SVG 1.1//EN" "http://www.w3.org/Graphics/SVG/1.1/DTD/svg11.dtd"><svg t="1534933846768" class="icon" style="" viewBox="0 0 1024 1024" version="1.1" xmlns="http://www.w3.org/2000/svg" p-id="11543" xmlns:xlink="http://www.w3.org/1999/xlink" width="200" height="200"><defs><style type="text/css"></style></defs><path d="M580.34781575 601.66084431s-31.19422652-7.79855662-38.99278321-12.47769046c-15.59711322-10.91797937-26.51509252-31.19422652-26.51509253-51.47047391 0-21.83595856 18.71653588-40.55249446 31.1942265-54.58989645 31.19422652-37.43307193 46.79133973-85.78412294 46.79133984-140.37401936 0-113.85892686-81.10498901-205.88189516-180.92651387-205.8818951-99.82152487 0-180.92651395 93.58267957-180.92651401 207.44160642 0 54.58989642 18.71653588 104.50065892 46.79133988 140.37401933 18.71653588 10.91797937 31.19422652 32.75393786 31.19422652 54.58989653 0 20.27624724-10.91797937 38.99278318-26.51509259 51.47047369v1.55971144c-1.55971127 0-4.67913397 1.55971127-4.67913393 1.55971139-10.91797937 6.23884532-20.27624724 10.91797937-32.75393791 10.91797922-77.9855663 26.51509252-141.93373067 67.06758706-180.92651393 118.53806084h1.55971145c-10.91797937 14.03740195-14.03740195 31.19422652-14.03740198 46.7913398 0 48.35105111 40.55249446 88.90354562 92.02296822 88.90354566h538.10040784c53.03018514 0 93.58267957-38.99278318 93.58267957-88.90354566 0-20.27624724-7.79855662-38.99278318-18.71653581-54.58989635-38.99278318-49.91076238-99.82152487-88.90354562-176.24738005-113.85892703z" p-id="11544"></path><path d="M945.32026623 692.1241014c-34.31364926-42.11220585-87.3438343-79.54527761-154.41142131-99.82152496 0 0-26.51509252-6.23884532-34.31364912-10.91797932-14.03740195-10.91797937-21.83595856-26.51509252-21.83595867-45.23162847 0-20.27624724 15.59711322-37.43307193 26.51509253-46.79133976 26.51509252-32.75393786 42.11220585-74.86614365 42.1122059-124.77690617 0-99.82152487-71.74672107-184.04593662-160.65026679-184.04593668-14.03740195 0-28.07480389 1.55971127-40.5524944 6.23884539 31.19422652 45.23162847 46.79133973 98.2618136 46.79133982 157.53084402 0 62.38845309-21.83595856 124.7769061-60.8287418 174.6876686l-4.67913402 4.679134v1.55971128c-4.67913397 4.67913397-10.91797937 10.91797937-12.47769055 15.59711328 0 1.55971127 0 1.55971127 1.55971128 1.55971133 4.67913397 1.55971127 10.91797937 4.67913397 15.59711329 4.67913399h1.55971131l7.79855667 4.67913395c84.22441164 26.51509252 154.41142132 73.30643236 201.20276127 132.57546289 20.27624724 26.51509252 32.75393786 57.70931916 32.75393779 88.90354567 0 18.71653588-4.67913397 32.75393786-10.91797937 48.35105104h59.26903045c46.79133973 0 84.22441164-34.31364926 84.22441182-79.54527765 0-20.27624724-6.23884532-35.87336049-18.7165361-49.91076243z" p-id="11545"></path></svg>